<svg width="11" height="12" viewBox="0 0 11 12" fill="none" xmlns="http://www.w3.org/2000/svg">
<g clip-path="url(#clip0_0_17)">
<path d="M10.5261 5.5623L5.79934 0.791146C5.53758 0.526928 5.1132 0.526928 4.85145 0.791146L4.83863 0.804089C4.57687 1.06831 4.57687 1.49667 4.83863 1.76089L9.56534 6.53205C9.8271 6.79627 10.2515 6.79627 10.5132 6.53205L10.5261 6.51911C10.7878 6.25489 10.7878 5.82652 10.5261 5.5623Z" fill="#39B54A"/>
<path d="M10.5225 6.50671L5.83416 11.2391C5.56516 11.5106 5.14246 11.4977 4.88627 11.2391C4.61727 10.9676 4.61725 10.528 4.87345 10.2694L9.56178 5.53697L10.5225 6.50671Z" fill="#39B54A"/>
<path d="M8.42371 5.3623H0.670261C0.300081 5.3623 0 5.66521 0 6.03887V6.05717C0 6.43083 0.300081 6.73373 0.670261 6.73373H8.42371C8.79389 6.73373 9.09397 6.43083 9.09397 6.05717V6.03887C9.09397 5.66521 8.79389 5.3623 8.42371 5.3623Z" fill="#39B54A"/>
</g>
<defs>
<clipPath id="clip0_0_17">
<rect width="11" height="12" fill="white"/>
</clipPath>
</defs>
</svg>
