<svg width="1201" height="26" viewBox="0 0 1201 26" fill="none" xmlns="http://www.w3.org/2000/svg">
<path fill-rule="evenodd" clip-rule="evenodd" d="M6.68707 22.9937V3.52182H0V22.9937H6.68707ZM26.0521 22.9937V3.52182H19.3654V22.9937H26.0521ZM41.7263 22.9937V3.52182H35.0392V22.9937H41.7263ZM7.11497 3.52812L11.5017 23H18.9408L14.554 3.52812H7.11497ZM30.5691 11.0005C32.7779 11.0005 34.569 9.20936 34.569 7.00024C34.569 4.79112 32.7779 3 30.5691 3C28.3597 3 26.5688 4.79082 26.5688 7.00024C26.5688 9.20966 28.3597 11.0005 30.5691 11.0005ZM56.1396 22.9937L50.0983 13.1406L55.9785 3.51162H48.0617L42.1851 13.134H42.177L42.1809 13.1412L42.177 13.1475H42.1851L48.2222 22.9937H56.1396Z" fill="#2A2D2A"/>
<path d="M106.269 0C112.214 0 116.399 4.26615 116.399 10.4134V12.9664H111.284V10.4134C111.284 7.12145 109.258 5.03876 106.269 5.03876C103.28 5.03876 101.254 7.08785 101.254 10.4134H96.1396C96.1396 4.26615 100.358 0 106.269 0ZM96.1396 26H116.432V20.9948H102.417L109.624 13H103.347L96.1396 20.9948V26Z" fill="#2A2D2A"/>
<path d="M156.457 22.9917V22.6333H156.624C156.931 22.6198 157.228 22.5217 157.482 22.35C157.637 22.244 157.767 22.1056 157.864 21.9445C157.96 21.7834 158.02 21.6033 158.041 21.4167L158.057 21.15V4.79167C158.057 4.59167 157.982 3.94167 157.457 3.63333C157.21 3.46659 156.922 3.37142 156.624 3.35833H156.432V3.00833H164.124V3.35833H163.999C163.698 3.37032 163.407 3.46552 163.157 3.63333C162.632 3.94167 162.574 4.6 162.566 4.79167V10.1H169.366V4.79167C169.366 4.6 169.291 3.95833 168.766 3.63333C168.514 3.46365 168.219 3.36834 167.916 3.35833H167.799V3H175.482V3.35833H175.299C174.998 3.37032 174.707 3.46552 174.457 3.63333C173.932 3.94167 173.874 4.59167 173.857 4.78333V21.1417C173.857 21.175 173.841 22 174.457 22.3583C174.707 22.525 174.999 22.625 175.299 22.6333H175.491V22.9917H167.791V22.6333H167.907C168.207 22.625 168.507 22.525 168.757 22.3583C169.241 22.075 169.341 21.4917 169.349 21.2583V14.4333H162.516L162.499 21.1583V21.3417C162.511 21.5562 162.574 21.7648 162.683 21.9502C162.792 22.1357 162.943 22.2927 163.124 22.4083C163.374 22.575 163.657 22.6583 163.949 22.6417H164.066V23H156.457V22.9917ZM160.082 21.1583H160.441V12.4333H171.457V21.1833H171.807V4.51667H171.457V12.1H160.432V4.5H160.082V21.1667V21.1583Z" fill="#2A2D2A"/>
<path fill-rule="evenodd" clip-rule="evenodd" d="M263.661 14.534H257.15C257.299 16.0924 258.441 16.5915 259.737 16.5915C261.058 16.5915 262.122 16.2962 263.004 15.8237V18.5034C262.101 19.078 260.907 19.3973 259.318 19.3973C256.078 19.3973 253.808 17.3683 253.808 13.3576C253.808 9.97006 255.733 7.28011 258.898 7.28011C262.057 7.28011 263.706 9.92943 263.706 13.3359C263.706 13.6574 263.676 14.3543 263.661 14.534ZM258.877 9.99181C258.045 9.99181 257.121 10.5799 257.121 12.0786H260.559C260.559 10.5816 259.693 9.99181 258.877 9.99181ZM248.567 19.3973C247.403 19.3973 246.691 18.9057 246.214 18.5559L246.207 22.2929L242.881 23L242.88 7.5012H245.912L245.982 8.32324C246.469 7.89589 247.283 7.28013 248.587 7.28009C250.923 7.28009 253.123 9.38412 253.123 13.2563C253.123 17.4824 250.946 19.3973 248.567 19.3973ZM247.792 10.2261C247.029 10.2261 246.55 10.5052 246.204 10.885L246.224 15.8274C246.546 16.1771 247.012 16.4584 247.792 16.4584C249.022 16.4584 249.847 15.1197 249.847 13.3292C249.847 11.5893 249.009 10.2261 247.792 10.2261ZM238.294 7.5012H241.633V19.1597H238.294V7.5012ZM238.294 3.70964L241.633 3V5.71218L238.294 6.42183V3.70964ZM234.809 11.2558V19.1593H231.485V7.50087H234.463L234.569 8.48417C235.379 7.05289 237.05 7.34282 237.493 7.50214V10.5592C237.07 10.4227 235.644 10.2137 234.809 11.2558ZM227.902 15.0695C227.902 17.03 230.001 16.4198 230.427 16.2494V18.9567C229.983 19.2 229.18 19.3975 228.092 19.3975C226.119 19.3975 224.638 17.9438 224.638 15.9749L224.652 5.33309L227.899 4.64286L227.902 7.50146H230.428V10.3379H227.902V15.0695ZM223.939 15.6369C223.939 18.0312 222.073 19.3974 219.307 19.3974C218.161 19.3974 216.947 19.1744 215.71 18.6425V15.467C216.826 16.074 218.209 16.529 219.31 16.529C220.052 16.529 220.547 16.3305 220.547 15.7158C220.547 14.128 215.491 14.7261 215.491 11.0439C215.491 8.68939 217.329 7.28026 220.027 7.28026C221.128 7.28026 222.23 7.44933 223.332 7.88882V11.0211C222.32 10.475 221.035 10.1652 220.024 10.1652C219.327 10.1652 218.855 10.3668 218.855 10.8859C218.855 12.3827 223.939 11.6713 223.939 15.6369Z" fill="#2A2D2A"/>
<path d="M314.964 5.06864C314.964 3.45233 313.428 2.96424 312.14 3.02025V3.16428C312.908 3.22029 313.5 3.53235 313.5 4.05244C313.5 4.41251 313.244 4.8606 312.476 4.8606C311.868 4.8606 310.859 4.50053 309.915 4.18847C308.875 3.8284 307.883 3.49234 307.059 3.49234C305.442 3.49234 304.218 4.69256 304.218 6.18084C304.218 7.38107 305.146 7.79715 305.522 7.94918L305.546 7.89317C305.306 7.73314 305.154 7.5571 305.154 7.04501C305.154 6.61293 305.466 6.03682 306.298 6.03682C307.051 6.03682 308.035 6.37288 309.339 6.74095C310.459 7.05301 311.667 7.34906 312.34 7.43708V10.0616L311.075 11.1018L312.34 12.19V15.7826C311.691 16.1507 310.939 16.2707 310.291 16.2707C309.091 16.2707 307.987 15.9347 307.075 14.9265L310.483 13.2702V7.59711L306.322 9.45346C306.755 8.34925 307.563 7.5251 308.451 6.989L308.427 6.92498C305.954 7.59711 303.706 9.86153 303.706 12.6621C303.706 16.0147 306.386 18.5032 309.483 18.5032C312.836 18.5032 314.804 15.8787 314.772 13.1021H314.708C314.22 14.1663 313.404 15.1745 312.484 15.7026V12.198L313.804 11.1338L312.484 10.0696V7.44508C313.708 7.44508 314.972 6.63693 314.972 5.07664M307.947 14.3184L306.979 14.8065C306.386 14.0383 305.994 12.9501 305.994 11.5499C305.994 10.9737 306.058 10.1896 306.25 9.63749L307.963 8.86935L307.939 14.3104L307.947 14.3184ZM323.526 9.70951L322.878 10.2216L320.901 8.46127L318.613 10.2296V3.39632L315.5 5.54873C315.86 5.66875 316.292 5.86078 316.292 6.69294V16.1427L315.228 16.9509L315.324 17.0469L315.86 16.6788L317.717 18.3751L320.205 16.7188L320.125 16.5988L319.493 17.0149L318.629 16.1507V10.4536L319.221 10.0216L320.581 11.2058V16.1587C320.581 19.2953 319.885 19.9434 318.477 20.4555V20.5355C320.821 20.6316 322.934 19.8394 322.934 15.8227V10.4216L323.638 9.84553L323.542 9.72551L323.526 9.70951ZM327.702 18.3511L331.311 15.4546L331.215 15.3186L329.327 16.8148L327.158 15.1025V14.0383L330.903 11.3978L329.015 8.46127L324.854 10.7497V16.1907L324.046 16.8228L324.142 16.9429L324.91 16.3347L327.71 18.3671H327.702V18.3511ZM327.15 13.8143V9.6935L328.967 12.534L327.15 13.8143ZM346.234 4.30049C346.234 4.04444 346.17 3.8284 346.074 3.53235H346.018C345.762 4.22848 345.482 4.59655 344.674 4.59655C343.97 4.59655 343.409 4.16447 343.113 3.84441C343.113 3.86841 340.745 6.58092 340.745 6.58092L340.865 6.67694L341.537 5.90879C342.049 6.30087 342.505 6.75695 343.641 6.77295V13.6863L338.793 5.28468C338.417 4.65256 337.768 3.70838 336.664 3.70838C335.36 3.70838 334.376 4.82859 334.536 6.72495H334.616C334.712 6.25286 334.992 5.66075 335.56 5.66075C336.016 5.66075 336.384 6.09283 336.6 6.4849V9.18941C335.104 9.18941 334.256 9.88554 334.256 11.0618C334.256 11.5499 334.616 12.6141 335.632 12.7981V12.7421C335.496 12.606 335.36 12.486 335.36 12.206C335.36 11.7499 335.696 11.5018 336.304 11.5018C336.4 11.5018 336.544 11.5258 336.6 11.5418V15.0465C334.84 15.0705 333.488 16.0307 333.488 17.695C333.488 19.3593 334.848 19.9994 336.264 19.9194V19.8634C335.376 19.7674 334.92 19.3113 334.92 18.6632C334.92 17.9591 335.432 17.575 336.08 17.575C336.728 17.575 337.224 17.9911 337.64 18.4631L340.009 15.7986L339.913 15.7026L339.305 16.3988C338.393 15.5906 337.808 15.2145 336.76 15.0545V6.74895L343.449 18.4071H343.81V6.78896C345.09 6.70894 346.234 5.74876 346.234 4.30049ZM348.482 18.3351L352.091 15.4386L351.995 15.3026L350.107 16.7988L347.938 15.0865V14.0223L351.683 11.3818L349.795 8.44527L345.634 10.7337V16.1747L344.826 16.8068L344.922 16.9269L345.69 16.3187L348.49 18.3511L348.482 18.3351ZM347.93 13.7983V9.6775L349.747 12.518L347.93 13.7983ZM364.909 9.38144L364.357 9.79752L362.781 8.45327L360.949 10.1096L361.701 10.8137V16.9909L359.829 15.7106V10.7017L360.477 10.2456L358.548 8.45327L356.756 10.1096L357.508 10.8137V16.7828L357.388 16.8628L355.628 15.5826V10.6777C355.628 9.53347 355.052 9.19741 354.323 8.74933C353.715 8.37326 353.395 8.02119 353.395 7.44508C353.395 6.81296 353.947 6.55691 354.123 6.4609C353.491 6.43689 351.739 7.06901 351.699 8.66931C351.675 9.49347 352.075 9.85353 352.491 10.2456C352.907 10.6377 353.299 11.0138 353.299 11.7099V16.5188L352.451 17.1909L352.547 17.2869L353.355 16.6548L355.46 18.3671L357.468 16.9669L359.676 18.3671L364.013 15.8067V10.2456L364.981 9.49347L364.901 9.37344L364.909 9.38144ZM379.432 4.70857L378.608 5.46071L376.752 3.84441L374.247 5.85278V3.96443H374.095V17.511C373.823 17.471 373.247 17.3109 372.615 17.2149V5.87679C372.615 5.05263 372.023 3.90042 370.543 3.90042C369.062 3.90042 368.134 5.14865 368.134 6.22885H368.198C368.278 5.74076 368.614 5.30068 369.102 5.30068C369.59 5.30068 370.046 5.61274 370.046 6.72495V9.95755C368.646 10.0136 367.798 10.8857 367.798 11.8299C367.798 12.366 368.134 13.3662 369.198 13.4062V13.3262C368.838 13.1742 368.766 12.9901 368.766 12.7901C368.766 12.318 369.222 12.158 369.854 12.158H370.006V17.3669C368.806 17.783 368.246 18.5912 368.246 19.5914C368.246 20.9676 369.35 22.0318 370.967 22.0318C372.111 22.0318 372.919 21.8318 373.967 21.5997C374.815 21.4237 375.736 21.2237 376.232 21.2237C376.864 21.2237 377.144 21.5037 377.144 21.9518C377.144 22.5279 376.928 22.816 376.592 22.92V23C377.952 22.744 378.744 21.9598 378.744 20.7356C378.744 19.5113 377.544 18.7032 376.2 18.7032C375.503 18.7032 374.247 18.9192 373.223 19.1593C372.079 19.4153 371.095 19.5353 370.735 19.5353C370.158 19.5353 369.454 19.2793 369.454 18.5112C369.454 17.815 370.03 17.2629 371.447 17.2629C372.215 17.2629 372.967 17.3829 373.911 17.599C374.919 17.815 375.607 18.1111 376.472 18.1111C377.672 18.1111 378.64 17.679 378.64 15.9187V5.64474L379.528 4.83659L379.432 4.71657V4.70857ZM376.04 10.1336C375.824 10.3736 375.567 10.5657 375.151 10.5657C374.695 10.5657 374.455 10.3256 374.239 10.1336V6.06082L374.831 5.58873L376.032 6.61293V10.1416L376.04 10.1336ZM376.04 12.0619C375.84 11.8619 375.583 11.6859 375.151 11.6859C374.719 11.6859 374.423 11.9019 374.239 12.0619V10.3256C374.415 10.4777 374.711 10.7177 375.151 10.7177C375.591 10.7177 375.848 10.5177 376.04 10.3256V12.0619ZM376.04 16.1427C376.04 16.8148 375.704 17.567 374.839 17.567C374.703 17.567 374.383 17.543 374.247 17.527V12.262C374.447 12.086 374.703 11.8459 375.159 11.8459C375.575 11.8459 375.808 12.0459 376.048 12.262V16.1507L376.04 16.1427ZM383.065 18.3351L387.09 15.8307V10.3496L384.489 8.43727L380.464 10.7417V16.1667L379.672 16.7988L379.752 16.9189L380.4 16.3828L383.065 18.3351ZM382.769 15.4946V9.6535L384.777 11.1498V16.9909L382.769 15.4946ZM394.779 8.57329C394.467 8.78933 394.187 8.90936 393.891 8.90936C393.579 8.90936 393.187 8.70932 392.979 8.45327C392.979 8.47727 391.482 10.0696 391.482 10.0696L389.986 8.45327L387.546 10.1496L387.626 10.2856L388.274 9.85353L389.162 10.8217V16.1267L388.098 16.9349L388.194 17.0309L388.73 16.6628L390.722 18.3591L393.243 16.6868L393.163 16.5668L392.515 16.9589L391.49 16.0307V10.2056C391.907 10.6617 392.379 11.0538 392.947 11.0538C393.971 11.0538 394.659 9.82953 394.779 8.56529M404.285 16.4148L403.533 16.8869L399.372 10.6777L399.588 10.3816C400.044 10.6537 400.452 11.0298 401.324 11.0298C402.196 11.0298 403.301 10.1176 403.397 8.44527C403.181 8.74132 402.749 9.09339 402.036 9.09339C401.524 9.09339 401.012 8.75733 400.7 8.44527L397.86 12.6221L401.628 18.3591L404.365 16.5428L404.285 16.4068V16.4148ZM399.236 16.5668L398.604 16.9829L397.74 16.1187V3.39632L394.627 5.54873C394.987 5.66875 395.419 5.86078 395.419 6.69294V16.1427L394.355 16.9509L394.451 17.0469L394.987 16.6788L396.843 18.3751L399.332 16.7188L399.252 16.5988L399.236 16.5668ZM417.551 5.05263C417.551 3.43633 416.015 2.94824 414.727 3.00425V3.16428C415.495 3.22029 416.087 3.53235 416.087 4.05244C416.087 4.41251 415.831 4.8606 415.063 4.8606C414.455 4.8606 413.447 4.50053 412.502 4.18847C411.462 3.8284 410.47 3.49234 409.646 3.49234C408.03 3.49234 406.805 4.69256 406.805 6.17284C406.805 7.37307 407.734 7.78915 408.11 7.94117L408.134 7.88516C407.894 7.72513 407.742 7.5491 407.742 7.037C407.742 6.60492 408.054 6.02882 408.886 6.02882C409.638 6.02882 410.622 6.36488 411.926 6.73295C413.047 7.04501 414.255 7.34106 414.927 7.42908V10.0536L413.663 11.0938L414.927 12.182V15.7746C414.279 16.1427 413.527 16.2627 412.878 16.2627C411.678 16.2627 410.566 15.9267 409.662 14.9185L413.071 13.2622V7.59711L408.91 9.45346C409.342 8.34925 410.15 7.5251 411.038 6.989L411.014 6.92498C408.55 7.59711 406.301 9.86153 406.301 12.6621C406.301 16.0147 408.982 18.5032 412.078 18.5032C415.431 18.5032 417.399 15.8787 417.367 13.1021H417.311C416.823 14.1663 416.007 15.1745 415.087 15.7026V12.198L416.407 11.1338L415.087 10.0696V7.44508C416.311 7.44508 417.575 6.63693 417.575 5.07664M410.55 14.3264L409.582 14.8145C408.99 14.0463 408.598 12.9581 408.598 11.5579C408.598 10.9817 408.654 10.1976 408.854 9.64549L410.566 8.87735L410.542 14.3184L410.55 14.3264ZM420.096 4.47652L418.36 5.9328L419.84 7.60511L421.576 6.14884L420.096 4.47652ZM422.736 16.5988L422.104 17.0149L421.24 16.1507V10.4136L421.968 9.83753L421.872 9.71751L421.264 10.1896L419.824 8.47727L417.455 10.1336L417.535 10.2696L418.127 9.87754L418.92 10.8617V16.1507L417.855 16.9589L417.951 17.0549L418.488 16.6868L420.344 18.3831L422.832 16.7268L422.752 16.6068L422.736 16.5988ZM436.043 16.5188L435.451 16.9109L434.523 16.0227V10.3976L435.275 9.82153L435.179 9.7015L434.507 10.2136L432.53 8.45327L430.306 10.1896L428.353 8.45327L426.161 10.1656L424.681 8.45327L422.312 10.1096L422.392 10.2456L422.984 9.85353L423.833 10.8217V16.1107L423.184 16.7588L425.073 18.3591L426.905 16.7028L426.153 15.9987V10.3656L426.641 10.0056L428.001 11.1898V16.1187L427.369 16.7668L429.282 18.3671L431.074 16.7108L430.322 16.0067V10.3736L430.794 9.99756L432.17 11.1978V16.0467L431.618 16.6228L433.546 18.3831L436.091 16.6468L436.011 16.5268H436.027L436.043 16.5188ZM442.924 15.3186L441.036 16.8148L438.867 15.1025V14.0383L442.612 11.3978L440.724 8.46127L436.563 10.7497V16.2947L439.419 18.3671L443.028 15.4706L442.932 15.3346L442.924 15.3186ZM438.859 13.8143V9.6935L440.676 12.534L438.859 13.8143ZM450.157 13.0381L448.557 11.8139C449.621 10.8857 449.997 9.70951 449.997 8.86135C449.997 8.74132 449.973 8.52528 449.957 8.32525H449.893C449.741 8.75733 449.317 9.1334 448.669 9.1334C448.021 9.1334 447.661 8.77333 447.269 8.34125L443.604 10.3736V13.3502L445.005 14.4544C443.604 15.6946 443.332 16.4628 443.332 17.1749C443.332 17.887 443.748 18.5112 444.46 18.7912L444.516 18.6952C444.34 18.5432 444.18 18.4391 444.18 18.0631C444.18 17.791 444.46 17.3589 445.093 17.3589C445.901 17.3589 446.397 17.911 446.653 18.2071C446.653 18.1831 450.157 16.0547 450.157 16.0547V13.0381ZM449.333 10.5977C448.781 11.5819 447.565 12.55 446.845 13.1021L445.957 12.35V9.45346C446.317 10.2456 447.045 10.9097 447.989 10.9097C448.541 10.9097 448.901 10.8137 449.325 10.5977M447.805 17.1029C447.389 16.1747 446.501 15.5026 445.517 15.5026C445.277 15.5026 444.548 15.4786 443.916 15.8707C444.292 15.2385 445.413 14.1023 446.837 13.2462L447.805 14.0543V17.0949V17.1029Z" fill="#2A2D2A"/>
<path d="M510.857 22H490.157L500.507 4L510.857 22ZM534.334 8.69038C535.464 8.69038 536.481 8.93615 537.383 9.42769C538.299 9.93169 539.047 10.692 539.536 11.6154C540.067 12.5846 540.342 13.7685 540.36 15.1669V15.88H531.239C531.301 16.8954 531.599 17.6938 532.132 18.2754C532.681 18.8454 533.415 19.1304 534.334 19.1304C534.899 19.1378 535.454 18.9803 535.931 18.6772C536.408 18.3741 536.786 17.9386 537.02 17.4238L540.191 17.6558C539.803 18.805 539.077 19.7269 538.013 20.4215C536.949 21.1162 535.723 21.4623 534.334 21.46C533.057 21.46 531.945 21.1981 530.997 20.6742C530.054 20.1604 529.28 19.3835 528.771 18.4381C528.224 17.4022 527.949 16.2446 527.971 15.0735C527.971 13.7996 528.237 12.6781 528.767 11.7088C529.278 10.7629 530.052 9.98598 530.997 9.47269C532.026 8.93636 533.173 8.66735 534.334 8.69038ZM555.986 8.69038C557.017 8.69038 557.961 8.88192 558.817 9.265C559.651 9.60614 560.383 10.1542 560.946 10.8573C561.495 11.5496 561.826 12.3631 561.939 13.2977L558.744 13.4604C558.646 12.7836 558.301 12.1671 557.775 11.7296C557.278 11.3022 556.641 11.073 555.986 11.0858C554.986 11.0858 554.213 11.4319 553.666 12.1242C553.112 12.8165 552.837 13.7996 552.839 15.0735C552.841 16.3473 553.116 17.3304 553.663 18.0227C554.21 18.715 554.984 19.0612 555.986 19.0612C556.712 19.0612 557.334 18.8454 557.851 18.4138C558.368 17.9708 558.682 17.3408 558.793 16.5238L562.012 16.6623C561.918 17.5827 561.574 18.4599 561.019 19.1996C560.459 19.9282 559.728 20.5063 558.89 20.8819C557.971 21.2707 556.983 21.4662 555.986 21.4565C554.709 21.4565 553.597 21.1958 552.649 20.6742C551.704 20.1609 550.93 19.384 550.419 18.4381C549.874 17.4019 549.6 16.2443 549.623 15.0735C549.623 13.7996 549.889 12.6781 550.419 11.7088C550.93 10.7629 551.704 9.98598 552.649 9.47269C553.678 8.93636 554.825 8.66735 555.986 8.69038ZM569.368 8.69038C570.499 8.69038 571.514 8.93615 572.414 9.42769C573.329 9.93169 574.078 10.692 574.567 11.6154C575.1 12.5846 575.375 13.7685 575.391 15.1669V15.88H566.27C566.334 16.8954 566.632 17.6938 567.163 18.2754C567.712 18.8454 568.446 19.1304 569.364 19.1304C569.93 19.1385 570.486 18.9813 570.964 18.6782C571.441 18.3751 571.82 17.9391 572.054 17.4238L575.221 17.6558C574.834 18.8096 574.108 19.7315 573.044 20.4215C571.98 21.1115 570.755 21.4577 569.368 21.46C568.092 21.46 566.978 21.1981 566.027 20.6742C565.084 20.1604 564.311 19.3835 563.802 18.4381C563.255 17.4022 562.98 16.2446 563.002 15.0735C563.002 13.7996 563.267 12.6781 563.798 11.7088C564.309 10.7629 565.083 9.98598 566.027 9.47269C567.057 8.93636 568.204 8.66735 569.364 8.69038M520.238 16.7004L526.206 4.81692H529.944L521.297 21.1796H519.179L510.529 4.81692H514.271L520.238 16.7004ZM545.03 11.3177C545.189 10.7408 545.482 10.2095 545.885 9.76692C546.411 9.23385 547.147 8.96731 548.093 8.96731H549.27V11.4804H548.069C547.397 11.4804 546.845 11.5727 546.411 11.7573C546.005 11.9323 545.668 12.2365 545.452 12.6227C545.244 13.0196 545.141 13.5238 545.141 14.1354V21.1796H542.063V8.96731H544.947L545.03 11.3177ZM580.244 21.1831H577.146V4.81346H580.244V21.1831ZM534.334 11.0131C533.48 11.0131 532.787 11.2669 532.257 11.7746C531.721 12.2823 531.39 12.9977 531.263 13.9208H537.165C537.054 12.9192 536.741 12.1888 536.224 11.7296C535.71 11.2551 535.033 10.9982 534.334 11.0131ZM569.364 11.0131C568.511 11.0131 567.818 11.2669 567.287 11.7746C566.754 12.2823 566.423 12.9977 566.294 13.9208H572.196C572.081 12.9192 571.766 12.1888 571.251 11.7296C570.737 11.2551 570.06 10.9982 569.361 11.0131" fill="#2A2D2A"/>
<path fill-rule="evenodd" clip-rule="evenodd" d="M626.931 22.9937V3.52182H620.244V22.9937H626.931ZM646.296 22.9937V3.52182H639.609V22.9937H646.296ZM661.97 22.9937V3.52182H655.283V22.9937H661.97ZM627.359 3.52812L631.746 23H639.185L634.798 3.52812H627.359ZM650.813 11.0005C653.022 11.0005 654.813 9.20936 654.813 7.00024C654.813 4.79112 653.022 3 650.813 3C648.604 3 646.813 4.79082 646.813 7.00024C646.813 9.20966 648.604 11.0005 650.813 11.0005ZM676.384 22.9937L670.342 13.1406L676.222 3.51162H668.306L662.429 13.134H662.421L662.425 13.1412L662.421 13.1475H662.429L668.466 22.9937H676.384Z" fill="#2A2D2A"/>
<path d="M726.513 0C732.458 0 736.643 4.26615 736.643 10.4134V12.9664H731.528V10.4134C731.528 7.12145 729.502 5.03876 726.513 5.03876C723.524 5.03876 721.498 7.08785 721.498 10.4134H716.384C716.384 4.26615 720.602 0 726.513 0ZM716.384 26H736.676V20.9948H722.661L729.868 13H723.591L716.384 20.9948V26Z" fill="#2A2D2A"/>
<path d="M776.701 22.9917V22.6333H776.868C777.175 22.6198 777.472 22.5217 777.726 22.35C777.881 22.244 778.011 22.1056 778.108 21.9445C778.204 21.7834 778.265 21.6033 778.285 21.4167L778.301 21.15V4.79167C778.301 4.59167 778.226 3.94167 777.701 3.63333C777.454 3.46659 777.166 3.37142 776.868 3.35833H776.676V3.00833H784.368V3.35833H784.243C783.942 3.37032 783.651 3.46552 783.401 3.63333C782.876 3.94167 782.818 4.6 782.81 4.79167V10.1H789.61V4.79167C789.61 4.6 789.535 3.95833 789.01 3.63333C788.758 3.46365 788.463 3.36834 788.16 3.35833H788.043V3H795.726V3.35833H795.543C795.242 3.37032 794.951 3.46552 794.701 3.63333C794.176 3.94167 794.118 4.59167 794.101 4.78333V21.1417C794.101 21.175 794.085 22 794.701 22.3583C794.951 22.525 795.243 22.625 795.543 22.6333H795.735V22.9917H788.035V22.6333H788.151C788.451 22.625 788.751 22.525 789.001 22.3583C789.485 22.075 789.585 21.4917 789.593 21.2583V14.4333H782.76L782.743 21.1583V21.3417C782.755 21.5562 782.818 21.7648 782.927 21.9502C783.036 22.1357 783.187 22.2927 783.368 22.4083C783.618 22.575 783.901 22.6583 784.193 22.6417H784.31V23H776.701V22.9917ZM780.326 21.1583H780.685V12.4333H791.701V21.1833H792.051V4.51667H791.701V12.1H780.676V4.5H780.326V21.1667V21.1583Z" fill="#2A2D2A"/>
<path fill-rule="evenodd" clip-rule="evenodd" d="M883.905 14.534H877.394C877.543 16.0924 878.685 16.5915 879.981 16.5915C881.302 16.5915 882.366 16.2962 883.248 15.8237V18.5034C882.345 19.078 881.151 19.3973 879.562 19.3973C876.322 19.3973 874.052 17.3683 874.052 13.3576C874.052 9.97006 875.977 7.28011 879.142 7.28011C882.301 7.28011 883.95 9.92943 883.95 13.3359C883.95 13.6574 883.92 14.3543 883.905 14.534ZM879.121 9.99181C878.289 9.99181 877.365 10.5799 877.365 12.0786H880.803C880.803 10.5816 879.937 9.99181 879.121 9.99181ZM868.811 19.3973C867.647 19.3973 866.936 18.9057 866.458 18.5559L866.451 22.2929L863.125 23L863.124 7.5012H866.156L866.226 8.32324C866.713 7.89589 867.527 7.28013 868.831 7.28009C871.167 7.28009 873.367 9.38412 873.367 13.2563C873.367 17.4824 871.19 19.3973 868.811 19.3973ZM868.036 10.2261C867.273 10.2261 866.794 10.5052 866.448 10.885L866.468 15.8274C866.79 16.1771 867.256 16.4584 868.036 16.4584C869.266 16.4584 870.091 15.1197 870.091 13.3292C870.091 11.5893 869.253 10.2261 868.036 10.2261ZM858.538 7.5012H861.877V19.1597H858.538V7.5012ZM858.538 3.70964L861.877 3V5.71218L858.538 6.42183V3.70964ZM855.053 11.2558V19.1593H851.729V7.50087H854.707L854.813 8.48417C855.623 7.05289 857.294 7.34282 857.737 7.50214V10.5592C857.314 10.4227 855.888 10.2137 855.053 11.2558ZM848.146 15.0695C848.146 17.03 850.245 16.4198 850.671 16.2494V18.9567C850.227 19.2 849.424 19.3975 848.336 19.3975C846.363 19.3975 844.882 17.9438 844.882 15.9749L844.896 5.33309L848.143 4.64286L848.146 7.50146H850.672V10.3379H848.146V15.0695ZM844.183 15.6369C844.183 18.0312 842.317 19.3974 839.551 19.3974C838.405 19.3974 837.191 19.1744 835.954 18.6425V15.467C837.07 16.074 838.453 16.529 839.554 16.529C840.296 16.529 840.791 16.3305 840.791 15.7158C840.791 14.128 835.735 14.7261 835.735 11.0439C835.735 8.68939 837.573 7.28026 840.271 7.28026C841.372 7.28026 842.474 7.44933 843.576 7.88882V11.0211C842.564 10.475 841.279 10.1652 840.268 10.1652C839.571 10.1652 839.099 10.3668 839.099 10.8859C839.099 12.3827 844.183 11.6713 844.183 15.6369Z" fill="#2A2D2A"/>
<path d="M935.208 5.06864C935.208 3.45233 933.672 2.96424 932.384 3.02025V3.16428C933.152 3.22029 933.744 3.53235 933.744 4.05244C933.744 4.41251 933.488 4.8606 932.72 4.8606C932.112 4.8606 931.103 4.50053 930.159 4.18847C929.119 3.8284 928.127 3.49234 927.303 3.49234C925.686 3.49234 924.462 4.69256 924.462 6.18084C924.462 7.38107 925.39 7.79715 925.766 7.94918L925.79 7.89317C925.55 7.73314 925.398 7.5571 925.398 7.04501C925.398 6.61293 925.71 6.03682 926.542 6.03682C927.295 6.03682 928.279 6.37288 929.583 6.74095C930.703 7.05301 931.912 7.34906 932.584 7.43708V10.0616L931.319 11.1018L932.584 12.19V15.7826C931.936 16.1507 931.183 16.2707 930.535 16.2707C929.335 16.2707 928.231 15.9347 927.319 14.9265L930.727 13.2702V7.59711L926.567 9.45346C926.999 8.34925 927.807 7.5251 928.695 6.989L928.671 6.92498C926.198 7.59711 923.95 9.86153 923.95 12.6621C923.95 16.0147 926.631 18.5032 929.727 18.5032C933.08 18.5032 935.048 15.8787 935.016 13.1021H934.952C934.464 14.1663 933.648 15.1745 932.728 15.7026V12.198L934.048 11.1338L932.728 10.0696V7.44508C933.952 7.44508 935.216 6.63693 935.216 5.07664M928.191 14.3184L927.223 14.8065C926.631 14.0383 926.238 12.9501 926.238 11.5499C926.238 10.9737 926.302 10.1896 926.494 9.63749L928.207 8.86935L928.183 14.3104L928.191 14.3184ZM943.77 9.70951L943.122 10.2216L941.145 8.46127L938.857 10.2296V3.39632L935.744 5.54873C936.104 5.66875 936.536 5.86078 936.536 6.69294V16.1427L935.472 16.9509L935.568 17.0469L936.104 16.6788L937.961 18.3751L940.449 16.7188L940.369 16.5988L939.737 17.0149L938.873 16.1507V10.4536L939.465 10.0216L940.825 11.2058V16.1587C940.825 19.2953 940.129 19.9434 938.721 20.4555V20.5355C941.065 20.6316 943.178 19.8394 943.178 15.8227V10.4216L943.882 9.84553L943.786 9.72551L943.77 9.70951ZM947.947 18.3511L951.555 15.4546L951.459 15.3186L949.571 16.8148L947.402 15.1025V14.0383L951.147 11.3978L949.259 8.46127L945.098 10.7497V16.1907L944.29 16.8228L944.386 16.9429L945.154 16.3347L947.955 18.3671H947.947V18.3511ZM947.394 13.8143V9.6935L949.211 12.534L947.394 13.8143ZM966.478 4.30049C966.478 4.04444 966.414 3.8284 966.318 3.53235H966.262C966.006 4.22848 965.726 4.59655 964.918 4.59655C964.214 4.59655 963.653 4.16447 963.357 3.84441C963.357 3.86841 960.989 6.58092 960.989 6.58092L961.109 6.67694L961.781 5.90879C962.293 6.30087 962.749 6.75695 963.886 6.77295V13.6863L959.037 5.28468C958.661 4.65256 958.012 3.70838 956.908 3.70838C955.604 3.70838 954.62 4.82859 954.78 6.72495H954.86C954.956 6.25286 955.236 5.66075 955.804 5.66075C956.26 5.66075 956.628 6.09283 956.844 6.4849V9.18941C955.348 9.18941 954.5 9.88554 954.5 11.0618C954.5 11.5499 954.86 12.6141 955.876 12.7981V12.7421C955.74 12.606 955.604 12.486 955.604 12.206C955.604 11.7499 955.94 11.5018 956.548 11.5018C956.644 11.5018 956.788 11.5258 956.844 11.5418V15.0465C955.084 15.0705 953.732 16.0307 953.732 17.695C953.732 19.3593 955.092 19.9994 956.508 19.9194V19.8634C955.62 19.7674 955.164 19.3113 955.164 18.6632C955.164 17.9591 955.676 17.575 956.324 17.575C956.972 17.575 957.468 17.9911 957.884 18.4631L960.253 15.7986L960.157 15.7026L959.549 16.3988C958.637 15.5906 958.052 15.2145 957.004 15.0545V6.74895L963.693 18.4071H964.054V6.78896C965.334 6.70894 966.478 5.74876 966.478 4.30049ZM968.726 18.3351L972.335 15.4386L972.239 15.3026L970.351 16.7988L968.182 15.0865V14.0223L971.927 11.3818L970.039 8.44527L965.878 10.7337V16.1747L965.07 16.8068L965.166 16.9269L965.934 16.3187L968.734 18.3511L968.726 18.3351ZM968.174 13.7983V9.6775L969.991 12.518L968.174 13.7983ZM985.153 9.38144L984.601 9.79752L983.025 8.45327L981.193 10.1096L981.945 10.8137V16.9909L980.073 15.7106V10.7017L980.721 10.2456L978.792 8.45327L977 10.1096L977.752 10.8137V16.7828L977.632 16.8628L975.872 15.5826V10.6777C975.872 9.53347 975.296 9.19741 974.568 8.74933C973.959 8.37326 973.639 8.02119 973.639 7.44508C973.639 6.81296 974.191 6.55691 974.367 6.4609C973.735 6.43689 971.983 7.06901 971.943 8.66931C971.919 9.49347 972.319 9.85353 972.735 10.2456C973.151 10.6377 973.543 11.0138 973.543 11.7099V16.5188L972.695 17.1909L972.791 17.2869L973.599 16.6548L975.704 18.3671L977.712 16.9669L979.921 18.3671L984.257 15.8067V10.2456L985.226 9.49347L985.146 9.37344L985.153 9.38144ZM999.676 4.70857L998.852 5.46071L996.996 3.84441L994.491 5.85278V3.96443H994.339V17.511C994.067 17.471 993.491 17.3109 992.859 17.2149V5.87679C992.859 5.05263 992.267 3.90042 990.787 3.90042C989.306 3.90042 988.378 5.14865 988.378 6.22885H988.442C988.522 5.74076 988.858 5.30068 989.346 5.30068C989.834 5.30068 990.29 5.61274 990.29 6.72495V9.95755C988.89 10.0136 988.042 10.8857 988.042 11.8299C988.042 12.366 988.378 13.3662 989.442 13.4062V13.3262C989.082 13.1742 989.01 12.9901 989.01 12.7901C989.01 12.318 989.466 12.158 990.098 12.158H990.25V17.3669C989.05 17.783 988.49 18.5912 988.49 19.5914C988.49 20.9676 989.594 22.0318 991.211 22.0318C992.355 22.0318 993.163 21.8318 994.211 21.5997C995.059 21.4237 995.98 21.2237 996.476 21.2237C997.108 21.2237 997.388 21.5037 997.388 21.9518C997.388 22.5279 997.172 22.816 996.836 22.92V23C998.196 22.744 998.988 21.9598 998.988 20.7356C998.988 19.5113 997.788 18.7032 996.444 18.7032C995.747 18.7032 994.491 18.9192 993.467 19.1593C992.323 19.4153 991.339 19.5353 990.979 19.5353C990.402 19.5353 989.698 19.2793 989.698 18.5112C989.698 17.815 990.274 17.2629 991.691 17.2629C992.459 17.2629 993.211 17.3829 994.155 17.599C995.163 17.815 995.852 18.1111 996.716 18.1111C997.916 18.1111 998.884 17.679 998.884 15.9187V5.64474L999.772 4.83659L999.676 4.71657V4.70857ZM996.284 10.1336C996.068 10.3736 995.812 10.5657 995.395 10.5657C994.939 10.5657 994.699 10.3256 994.483 10.1336V6.06082L995.075 5.58873L996.276 6.61293V10.1416L996.284 10.1336ZM996.284 12.0619C996.084 11.8619 995.827 11.6859 995.395 11.6859C994.963 11.6859 994.667 11.9019 994.483 12.0619V10.3256C994.659 10.4777 994.955 10.7177 995.395 10.7177C995.836 10.7177 996.092 10.5177 996.284 10.3256V12.0619ZM996.284 16.1427C996.284 16.8148 995.948 17.567 995.083 17.567C994.947 17.567 994.627 17.543 994.491 17.527V12.262C994.691 12.086 994.947 11.8459 995.403 11.8459C995.82 11.8459 996.052 12.0459 996.292 12.262V16.1507L996.284 16.1427ZM1003.31 18.3351L1007.33 15.8307V10.3496L1004.73 8.43727L1000.71 10.7417V16.1667L999.916 16.7988L999.996 16.9189L1000.64 16.3828L1003.31 18.3351ZM1003.01 15.4946V9.6535L1005.02 11.1498V16.9909L1003.01 15.4946ZM1015.02 8.57329C1014.71 8.78933 1014.43 8.90936 1014.13 8.90936C1013.82 8.90936 1013.43 8.70932 1013.22 8.45327C1013.22 8.47727 1011.73 10.0696 1011.73 10.0696L1010.23 8.45327L1007.79 10.1496L1007.87 10.2856L1008.52 9.85353L1009.41 10.8217V16.1267L1008.34 16.9349L1008.44 17.0309L1008.97 16.6628L1010.97 18.3591L1013.49 16.6868L1013.41 16.5668L1012.76 16.9589L1011.73 16.0307V10.2056C1012.15 10.6617 1012.62 11.0538 1013.19 11.0538C1014.21 11.0538 1014.9 9.82953 1015.02 8.56529M1024.53 16.4148L1023.78 16.8869L1019.62 10.6777L1019.83 10.3816C1020.29 10.6537 1020.7 11.0298 1021.57 11.0298C1022.44 11.0298 1023.54 10.1176 1023.64 8.44527C1023.42 8.74132 1022.99 9.09339 1022.28 9.09339C1021.77 9.09339 1021.26 8.75733 1020.94 8.44527L1018.1 12.6221L1021.87 18.3591L1024.61 16.5428L1024.53 16.4068V16.4148ZM1019.48 16.5668L1018.85 16.9829L1017.98 16.1187V3.39632L1014.87 5.54873C1015.23 5.66875 1015.66 5.86078 1015.66 6.69294V16.1427L1014.6 16.9509L1014.7 17.0469L1015.23 16.6788L1017.09 18.3751L1019.58 16.7188L1019.5 16.5988L1019.48 16.5668ZM1037.8 5.05263C1037.8 3.43633 1036.26 2.94824 1034.97 3.00425V3.16428C1035.74 3.22029 1036.33 3.53235 1036.33 4.05244C1036.33 4.41251 1036.08 4.8606 1035.31 4.8606C1034.7 4.8606 1033.69 4.50053 1032.75 4.18847C1031.71 3.8284 1030.71 3.49234 1029.89 3.49234C1028.27 3.49234 1027.05 4.69256 1027.05 6.17284C1027.05 7.37307 1027.98 7.78915 1028.35 7.94117L1028.38 7.88516C1028.14 7.72513 1027.99 7.5491 1027.99 7.037C1027.99 6.60492 1028.3 6.02882 1029.13 6.02882C1029.88 6.02882 1030.87 6.36488 1032.17 6.73295C1033.29 7.04501 1034.5 7.34106 1035.17 7.42908V10.0536L1033.91 11.0938L1035.17 12.182V15.7746C1034.52 16.1427 1033.77 16.2627 1033.12 16.2627C1031.92 16.2627 1030.81 15.9267 1029.91 14.9185L1033.31 13.2622V7.59711L1029.15 9.45346C1029.59 8.34925 1030.39 7.5251 1031.28 6.989L1031.26 6.92498C1028.79 7.59711 1026.55 9.86153 1026.55 12.6621C1026.55 16.0147 1029.23 18.5032 1032.32 18.5032C1035.67 18.5032 1037.64 15.8787 1037.61 13.1021H1037.56C1037.07 14.1663 1036.25 15.1745 1035.33 15.7026V12.198L1036.65 11.1338L1035.33 10.0696V7.44508C1036.56 7.44508 1037.82 6.63693 1037.82 5.07664M1030.79 14.3264L1029.83 14.8145C1029.23 14.0463 1028.84 12.9581 1028.84 11.5579C1028.84 10.9817 1028.9 10.1976 1029.1 9.64549L1030.81 8.87735L1030.79 14.3184L1030.79 14.3264ZM1040.34 4.47652L1038.6 5.9328L1040.08 7.60511L1041.82 6.14884L1040.34 4.47652ZM1042.98 16.5988L1042.35 17.0149L1041.48 16.1507V10.4136L1042.21 9.83753L1042.12 9.71751L1041.51 10.1896L1040.07 8.47727L1037.7 10.1336L1037.78 10.2696L1038.37 9.87754L1039.16 10.8617V16.1507L1038.1 16.9589L1038.2 17.0549L1038.73 16.6868L1040.59 18.3831L1043.08 16.7268L1043 16.6068L1042.98 16.5988ZM1056.29 16.5188L1055.69 16.9109L1054.77 16.0227V10.3976L1055.52 9.82153L1055.42 9.7015L1054.75 10.2136L1052.77 8.45327L1050.55 10.1896L1048.6 8.45327L1046.4 10.1656L1044.92 8.45327L1042.56 10.1096L1042.64 10.2456L1043.23 9.85353L1044.08 10.8217V16.1107L1043.43 16.7588L1045.32 18.3591L1047.15 16.7028L1046.4 15.9987V10.3656L1046.89 10.0056L1048.25 11.1898V16.1187L1047.61 16.7668L1049.53 18.3671L1051.32 16.7108L1050.57 16.0067V10.3736L1051.04 9.99756L1052.41 11.1978V16.0467L1051.86 16.6228L1053.79 18.3831L1056.33 16.6468L1056.25 16.5268H1056.27L1056.29 16.5188ZM1063.17 15.3186L1061.28 16.8148L1059.11 15.1025V14.0383L1062.86 11.3978L1060.97 8.46127L1056.81 10.7497V16.2947L1059.66 18.3671L1063.27 15.4706L1063.18 15.3346L1063.17 15.3186ZM1059.1 13.8143V9.6935L1060.92 12.534L1059.1 13.8143ZM1070.4 13.0381L1068.8 11.8139C1069.87 10.8857 1070.24 9.70951 1070.24 8.86135C1070.24 8.74132 1070.22 8.52528 1070.2 8.32525H1070.14C1069.99 8.75733 1069.56 9.1334 1068.91 9.1334C1068.27 9.1334 1067.91 8.77333 1067.51 8.34125L1063.85 10.3736V13.3502L1065.25 14.4544C1063.85 15.6946 1063.58 16.4628 1063.58 17.1749C1063.58 17.887 1063.99 18.5112 1064.7 18.7912L1064.76 18.6952C1064.58 18.5432 1064.42 18.4391 1064.42 18.0631C1064.42 17.791 1064.7 17.3589 1065.34 17.3589C1066.14 17.3589 1066.64 17.911 1066.9 18.2071C1066.9 18.1831 1070.4 16.0547 1070.4 16.0547V13.0381ZM1069.58 10.5977C1069.03 11.5819 1067.81 12.55 1067.09 13.1021L1066.2 12.35V9.45346C1066.56 10.2456 1067.29 10.9097 1068.23 10.9097C1068.79 10.9097 1069.15 10.8137 1069.57 10.5977M1068.05 17.1029C1067.63 16.1747 1066.74 15.5026 1065.76 15.5026C1065.52 15.5026 1064.79 15.4786 1064.16 15.8707C1064.54 15.2385 1065.66 14.1023 1067.08 13.2462L1068.05 14.0543V17.0949V17.1029Z" fill="#2A2D2A"/>
<path d="M1131.1 22H1110.4L1120.75 4L1131.1 22ZM1154.58 8.69038C1155.71 8.69038 1156.72 8.93615 1157.63 9.42769C1158.54 9.93169 1159.29 10.692 1159.78 11.6154C1160.31 12.5846 1160.59 13.7685 1160.6 15.1669V15.88H1151.48C1151.55 16.8954 1151.84 17.6938 1152.38 18.2754C1152.93 18.8454 1153.66 19.1304 1154.58 19.1304C1155.14 19.1378 1155.7 18.9803 1156.17 18.6772C1156.65 18.3741 1157.03 17.9386 1157.26 17.4238L1160.43 17.6558C1160.05 18.805 1159.32 19.7269 1158.26 20.4215C1157.19 21.1162 1155.97 21.4623 1154.58 21.46C1153.3 21.46 1152.19 21.1981 1151.24 20.6742C1150.3 20.1604 1149.52 19.3835 1149.01 18.4381C1148.47 17.4022 1148.19 16.2446 1148.22 15.0735C1148.22 13.7996 1148.48 12.6781 1149.01 11.7088C1149.52 10.7629 1150.3 9.98598 1151.24 9.47269C1152.27 8.93636 1153.42 8.66735 1154.58 8.69038ZM1176.23 8.69038C1177.26 8.69038 1178.2 8.88192 1179.06 9.265C1179.89 9.60614 1180.63 10.1542 1181.19 10.8573C1181.74 11.5496 1182.07 12.3631 1182.18 13.2977L1178.99 13.4604C1178.89 12.7836 1178.54 12.1671 1178.02 11.7296C1177.52 11.3022 1176.88 11.073 1176.23 11.0858C1175.23 11.0858 1174.46 11.4319 1173.91 12.1242C1173.36 12.8165 1173.08 13.7996 1173.08 15.0735C1173.09 16.3473 1173.36 17.3304 1173.91 18.0227C1174.45 18.715 1175.23 19.0612 1176.23 19.0612C1176.96 19.0612 1177.58 18.8454 1178.1 18.4138C1178.61 17.9708 1178.93 17.3408 1179.04 16.5238L1182.26 16.6623C1182.16 17.5827 1181.82 18.4599 1181.26 19.1996C1180.7 19.9282 1179.97 20.5063 1179.13 20.8819C1178.22 21.2707 1177.23 21.4662 1176.23 21.4565C1174.95 21.4565 1173.84 21.1958 1172.89 20.6742C1171.95 20.1609 1171.17 19.384 1170.66 18.4381C1170.12 17.4019 1169.84 16.2443 1169.87 15.0735C1169.87 13.7996 1170.13 12.6781 1170.66 11.7088C1171.17 10.7629 1171.95 9.98598 1172.89 9.47269C1173.92 8.93636 1175.07 8.66735 1176.23 8.69038ZM1189.61 8.69038C1190.74 8.69038 1191.76 8.93615 1192.66 9.42769C1193.57 9.93169 1194.32 10.692 1194.81 11.6154C1195.34 12.5846 1195.62 13.7685 1195.63 15.1669V15.88H1186.51C1186.58 16.8954 1186.88 17.6938 1187.41 18.2754C1187.96 18.8454 1188.69 19.1304 1189.61 19.1304C1190.17 19.1385 1190.73 18.9813 1191.21 18.6782C1191.69 18.3751 1192.06 17.9391 1192.3 17.4238L1195.47 17.6558C1195.08 18.8096 1194.35 19.7315 1193.29 20.4215C1192.22 21.1115 1191 21.4577 1189.61 21.46C1188.34 21.46 1187.22 21.1981 1186.27 20.6742C1185.33 20.1604 1184.56 19.3835 1184.05 18.4381C1183.5 17.4022 1183.22 16.2446 1183.25 15.0735C1183.25 13.7996 1183.51 12.6781 1184.04 11.7088C1184.55 10.7629 1185.33 9.98598 1186.27 9.47269C1187.3 8.93636 1188.45 8.66735 1189.61 8.69038M1140.48 16.7004L1146.45 4.81692H1150.19L1141.54 21.1796H1139.42L1130.77 4.81692H1134.51L1140.48 16.7004ZM1165.27 11.3177C1165.43 10.7408 1165.73 10.2095 1166.13 9.76692C1166.65 9.23385 1167.39 8.96731 1168.34 8.96731H1169.51V11.4804H1168.31C1167.64 11.4804 1167.09 11.5727 1166.65 11.7573C1166.25 11.9323 1165.91 12.2365 1165.7 12.6227C1165.49 13.0196 1165.38 13.5238 1165.38 14.1354V21.1796H1162.31V8.96731H1165.19L1165.27 11.3177ZM1200.49 21.1831H1197.39V4.81346H1200.49V21.1831ZM1154.58 11.0131C1153.72 11.0131 1153.03 11.2669 1152.5 11.7746C1151.97 12.2823 1151.63 12.9977 1151.51 13.9208H1157.41C1157.3 12.9192 1156.98 12.1888 1156.47 11.7296C1155.95 11.2551 1155.28 10.9982 1154.58 11.0131ZM1189.61 11.0131C1188.75 11.0131 1188.06 11.2669 1187.53 11.7746C1187 12.2823 1186.67 12.9977 1186.54 13.9208H1192.44C1192.32 12.9192 1192.01 12.1888 1191.49 11.7296C1190.98 11.2551 1190.3 10.9982 1189.6 11.0131" fill="#2A2D2A"/>
</svg>
