<svg width="49" height="65" viewBox="0 0 49 65" fill="none" xmlns="http://www.w3.org/2000/svg">
<g clip-path="url(#clip0_0_25)">
<path d="M4.84567 53.2936L7.01956 46.5122C8.18883 42.8642 9.62372 39.3123 11.5741 36.0162C11.336 36.1456 11.1409 36.2808 10.9361 36.468C8.96508 38.2675 7.17736 40.2111 5.49059 42.2811C5.37395 42.4242 5.20145 42.5045 5.05346 42.4643C4.87606 42.4153 4.77706 42.2673 4.73296 42.0645C3.8881 38.1636 3.51566 34.5009 4.23996 30.5315C4.62907 28.4017 5.35239 26.414 6.42267 24.5459C7.97615 21.8369 10.2725 19.715 13.1061 18.3977C14.882 17.5725 16.6942 16.9716 18.6241 16.5874L26.0102 15.1153C27.8303 14.7527 29.5553 14.1783 31.2254 13.3942C36.7081 10.8185 40.7726 5.95225 42.4261 0.133323C42.5084 0.0451131 42.7054 -0.0146737 42.8191 0.00296829C42.925 0.0186501 43.0671 0.119602 43.1573 0.260738C45.6575 4.18412 47.212 8.62403 47.8246 13.2404C48.9135 21.4449 46.7445 29.7337 41.7714 36.3377C37.3423 42.2183 31.045 46.7553 23.8314 48.4862C18.8838 49.6466 13.5883 49.3536 9.21403 46.6808C6.99996 52.3743 6.38053 58.4157 6.48148 64.4443C6.49912 64.6384 6.39425 65.0148 6.15804 65.0001L0.492016 64.6482C0.360681 64.6404 0.189161 64.657 0.110752 64.6168C0.0205819 64.5698 -0.0303839 64.2708 0.0235223 64.1836C1.09674 62.4488 2.02197 60.6964 2.81292 58.8067C3.60387 56.9171 4.23212 55.2087 4.84665 53.2926L4.84567 53.2936ZM1.16633 63.8151L1.23788 63.8876L3.60485 64.0444L5.66897 64.1807C5.60232 55.7478 6.90391 47.1679 11.8358 40.1072C12.6905 38.884 13.6 37.7833 14.6664 36.7376C14.7869 36.619 15.1065 36.7209 15.1809 36.8375C15.275 36.9845 15.227 37.2296 15.1172 37.3962C12.6885 39.8327 10.8685 42.7564 9.51296 45.9398C14.2714 48.9184 20.0952 48.8713 25.3143 47.2669C32.9249 44.9284 39.4436 39.3378 43.3739 32.4545C48.835 22.7474 48.5626 10.8861 42.8848 1.31436C40.954 7.098 36.6973 11.83 31.1097 14.3185C29.7768 14.9124 28.4164 15.3123 26.9972 15.6897L19.221 17.2745C14.4743 18.2419 10.3029 19.9904 7.5792 24.1706C6.3031 26.1298 5.46804 28.2782 5.02013 30.5795C4.3566 34.1167 4.61339 37.6402 5.35729 41.202C6.89313 39.376 8.52599 37.6197 10.3147 35.9701C10.9243 35.4085 11.5957 34.9636 12.4317 34.9518C12.5523 34.9498 12.7503 35.0635 12.8228 35.141C12.8953 35.2184 12.8777 35.4869 12.8071 35.5938C11.8809 37.0071 11.0909 38.4351 10.3745 39.9749C9.43161 42.0008 8.64459 44.0306 7.95949 46.1643L5.74541 53.0662C4.55948 56.7612 3.1638 60.4572 1.16535 63.8171L1.16633 63.8151Z" fill="#39B54A"/>
<path d="M1.16633 63.8151C3.16478 60.4563 4.56046 56.7593 5.7464 53.0643L7.96047 46.1623C8.64459 44.0286 9.4326 41.9988 10.3755 39.9729C11.0919 38.4332 11.8819 37.0051 12.8081 35.5918C12.8777 35.485 12.8973 35.2164 12.8238 35.139C12.7503 35.0616 12.5523 34.9479 12.4327 34.9498C11.5967 34.9626 10.9253 35.4066 10.3157 35.9682C8.52697 37.6177 6.89509 39.3741 5.35827 41.2C4.61437 37.6393 4.35758 34.1158 5.02111 30.5776C5.47 28.2763 6.30408 26.1279 7.58018 24.1686C10.3039 19.9884 14.4753 18.2399 19.222 17.2725L26.9982 15.6877C28.4174 15.3104 29.7778 14.9105 31.1107 14.3165C36.6983 11.828 40.954 7.09605 42.8858 1.31241C48.5636 10.8842 48.836 22.7455 43.3748 32.4525C39.4446 39.3358 32.9249 44.9264 25.3153 47.2649C20.0962 48.8684 14.2724 48.9155 9.51394 45.9379C10.8704 42.7554 12.6895 39.8308 15.1182 37.3942C15.227 37.2276 15.276 36.9836 15.1819 36.8356C15.1074 36.7189 14.7879 36.617 14.6674 36.7356C13.601 37.7824 12.6915 38.8821 11.8368 40.1052C6.90489 47.166 5.60428 55.7459 5.66995 64.1787L3.60583 64.0425L1.23886 63.8857L1.16731 63.8132L1.16633 63.8151Z" fill="#39B54A"/>
</g>
<defs>
<clipPath id="clip0_0_25">
<rect width="47.6705" height="64.4211" fill="white" transform="scale(1.00899)"/>
</clipPath>
</defs>
</svg>
